<svg class="svg-icon" style="width: 1em; height: 1em;vertical-align: middle;fill: currentColor;overflow: hidden;" viewBox="0 0 1024 1024" version="1.1" xmlns="http://www.w3.org/2000/svg"><path d="M939.52 555.52h-30.72c-15.36-92.16-69.12-171.52-145.92-227.84-2.56-2.56-7.68-5.12-12.8-7.68-48.64 48.64-104.96 71.68-166.4 69.12-81.92-5.12-153.6-53.76-179.2-128l-94.72-71.68c-12.8-7.68-23.04-2.56-23.04 10.24l-15.36 138.24c-48.64 38.4-89.6 87.04-112.64 143.36H97.28c-25.6 0-46.08 20.48-46.08 46.08V665.6c0 25.6 20.48 46.08 46.08 46.08h53.76c25.6 79.36 81.92 148.48 156.16 192v87.04c0 10.24 10.24 20.48 20.48 20.48h99.84c10.24 0 20.48-10.24 20.48-20.48v-35.84c25.6 5.12 51.2 7.68 76.8 7.68s51.2-2.56 76.8-7.68v35.84c0 10.24 10.24 20.48 20.48 20.48h99.84c10.24 0 20.48-10.24 20.48-20.48v-87.04c94.72-56.32 158.72-148.48 171.52-256h28.16c25.6 0 46.08-20.48 46.08-46.08s-23.04-46.08-48.64-46.08zM256 471.04c7.68 10.24 20.48 17.92 33.28 17.92 23.04 0 40.96-17.92 40.96-40.96 0-23.04-17.92-40.96-40.96-40.96h-5.12c7.68-5.12 17.92-7.68 28.16-7.68 33.28 0 58.88 25.6 58.88 58.88 0 33.28-25.6 58.88-58.88 58.88-25.6 0-48.64-20.48-56.32-46.08zM596.48 7.68c92.16 0 168.96 76.8 168.96 168.96s-76.8 168.96-168.96 168.96-168.96-76.8-168.96-168.96 76.8-168.96 168.96-168.96z m12.8 253.44c38.4-5.12 56.32-25.6 56.32-53.76 0-25.6-12.8-40.96-51.2-53.76-25.6-7.68-35.84-12.8-35.84-20.48 0-5.12 5.12-12.8 23.04-12.8 10.24 0 17.92 0 28.16 2.56 10.24 5.12 20.48 0 23.04-10.24 2.56-10.24-5.12-20.48-15.36-23.04-10.24-2.56-17.92-2.56-25.6-2.56v-7.68c0-10.24-7.68-17.92-17.92-17.92s-17.92 7.68-17.92 17.92v7.68c-35.84 7.68-53.76 25.6-53.76 51.2 0 28.16 23.04 43.52 56.32 53.76 23.04 7.68 30.72 12.8 30.72 20.48 0 10.24-10.24 12.8-25.6 12.8-10.24 0-20.48-2.56-35.84-5.12-10.24-2.56-20.48 2.56-23.04 12.8-2.56 10.24 5.12 23.04 15.36 25.6 12.8 2.56 23.04 5.12 33.28 5.12v7.68c0 10.24 7.68 17.92 17.92 17.92 10.24 0 17.92-7.68 17.92-17.92v-10.24z" fill="#10385C" /></svg>